<svg width="100" height="100" viewBox="0 0 100 100" fill="none" xmlns="http://www.w3.org/2000/svg">
<path d="M50 21.875C56.0406 21.875 60.9375 16.9781 60.9375 10.9375C60.9375 4.89689 56.0406 0 50 0C43.9594 0 39.0625 4.89689 39.0625 10.9375C39.0625 16.9781 43.9594 21.875 50 21.875Z" fill="#0492C2"/>
<path d="M59.375 25H40.625C37.3128 25.0098 34.1391 26.3299 31.797 28.672C29.4549 31.0141 28.1348 34.1878 28.125 37.5V58.5C28.125 60.6191 29.7715 62.4219 31.8887 62.498C32.4134 62.5172 32.9365 62.4304 33.4269 62.2428C33.9173 62.0552 34.3648 61.7707 34.7427 61.4063C35.1207 61.0418 35.4213 60.6049 35.6266 60.1217C35.8318 59.6384 35.9376 59.1188 35.9375 58.5938V39.1152C35.9325 38.7121 36.0801 38.322 36.3507 38.0232C36.6213 37.7244 36.9949 37.5389 37.3965 37.5039C37.6102 37.4897 37.8246 37.5196 38.0263 37.5918C38.2279 37.6639 38.4126 37.7767 38.5689 37.9233C38.7251 38.0698 38.8496 38.2469 38.9345 38.4436C39.0194 38.6402 39.063 38.8522 39.0625 39.0664V95.5078C39.0625 96.6992 39.5358 97.8418 40.3782 98.6843C41.2207 99.5267 42.3633 100 43.5547 100C44.7461 100 45.8887 99.5267 46.7311 98.6843C47.5736 97.8418 48.0469 96.6992 48.0469 95.5078V67.6445C48.04 67.1401 48.2239 66.6518 48.5618 66.2773C48.8997 65.9028 49.3667 65.6698 49.8691 65.625C50.1364 65.6071 50.4045 65.6443 50.6568 65.7344C50.9091 65.8244 51.1401 65.9655 51.3356 66.1487C51.5311 66.3318 51.6868 66.5533 51.793 66.7992C51.8992 67.0451 51.9537 67.3102 51.9531 67.5781V95.5078C51.9531 96.6992 52.4264 97.8418 53.2689 98.6843C54.1113 99.5267 55.2539 100 56.4453 100C57.6367 100 58.7793 99.5267 59.6218 98.6843C60.4642 97.8418 60.9375 96.6992 60.9375 95.5078V39.1152C60.9325 38.7121 61.0801 38.322 61.3507 38.0232C61.6213 37.7244 61.9949 37.5389 62.3965 37.5039C62.6102 37.4897 62.8246 37.5196 63.0263 37.5918C63.2279 37.6639 63.4126 37.7767 63.5689 37.9233C63.7251 38.0698 63.8496 38.2469 63.9345 38.4436C64.0194 38.6402 64.063 38.8522 64.0625 39.0664V58.5039C64.0625 60.623 65.709 62.4258 67.8262 62.502C68.3512 62.5211 68.8747 62.4342 69.3653 62.2464C69.8559 62.0585 70.3037 61.7737 70.6816 61.4088C71.0596 61.044 71.3602 60.6066 71.5652 60.1229C71.7702 59.6392 71.8756 59.1191 71.875 58.5938V37.5C71.8652 34.1878 70.5451 31.0141 68.203 28.672C65.8609 26.3299 62.6872 25.0098 59.375 25Z" fill="#0492C2"/>
</svg>
