<svg width="100" height="100" viewBox="0 0 100 100" fill="none" xmlns="http://www.w3.org/2000/svg">
<path d="M49.9512 21.875C55.9918 21.875 60.8887 16.9781 60.8887 10.9375C60.8887 4.89689 55.9918 0 49.9512 0C43.9106 0 39.0137 4.89689 39.0137 10.9375C39.0137 16.9781 43.9106 21.875 49.9512 21.875Z" fill="#A50121"/>
<path d="M77.0762 54.2773L75.0586 47.5566V47.5352L70.6719 32.9141H70.6621L70.1719 31.2637C69.6337 29.454 68.5255 27.8665 67.0122 26.7375C65.4989 25.6085 63.6615 24.9984 61.7735 24.998H38.336C36.4477 24.9975 34.6098 25.6072 33.0963 26.7363C31.5829 27.8654 30.4749 29.4535 29.9375 31.2637L29.4473 32.9141H29.4356L25.0488 47.5352V47.5566L23.0235 54.2773C22.4141 56.3066 23.4727 58.5078 25.4785 59.1875C25.9755 59.3567 26.5014 59.4239 27.0249 59.3853C27.5484 59.3467 28.0587 59.2029 28.5254 58.9626C28.9921 58.7224 29.4056 58.3905 29.7412 57.9868C30.0768 57.5832 30.3275 57.116 30.4785 56.6133L35.4746 39.9629L35.8985 38.5508C36.0222 38.2057 36.2634 37.9151 36.5798 37.7298C36.8962 37.5446 37.2676 37.4765 37.6292 37.5375C37.9907 37.5985 38.3193 37.7847 38.5574 38.0635C38.7955 38.3422 38.928 38.6959 38.9317 39.0625C38.9315 39.1682 38.9204 39.2736 38.8985 39.377L30.3574 67.8516C30.2174 68.3181 30.1884 68.811 30.2726 69.2908C30.3569 69.7705 30.5522 70.224 30.8429 70.6149C31.1336 71.0057 31.5117 71.3233 31.9469 71.5421C32.3821 71.7609 32.8625 71.8749 33.3496 71.875H39.0137V94.2754C39.0137 97.4902 41.0703 100 43.7012 100C46.332 100 48.3887 97.4902 48.3887 94.2754V71.875H51.5137V94.2754C51.5137 97.4902 53.5703 100 56.2012 100C58.832 100 60.8887 97.4902 60.8887 94.2754V71.875H66.7481C67.2354 71.8752 67.7159 71.7614 68.1514 71.5427C68.5869 71.324 68.9652 71.0066 69.2561 70.6156C69.5471 70.2247 69.7425 69.7712 69.8269 69.2912C69.9113 68.8113 69.8823 68.3183 69.7422 67.8516L61.1992 39.373C61.1778 39.2709 61.1673 39.1668 61.168 39.0625C61.17 38.6948 61.3016 38.3395 61.5397 38.0593C61.7778 37.779 62.1071 37.5917 62.4697 37.5304C62.8323 37.469 63.2049 37.5375 63.522 37.7238C63.8391 37.9101 64.0803 38.2022 64.2031 38.5488L64.627 39.9609L69.6211 56.6113C69.7727 57.1133 70.0239 57.5796 70.3596 57.9825C70.6953 58.3853 71.1087 58.7165 71.5751 58.9561C72.0415 59.1958 72.5514 59.3391 73.0744 59.3775C73.5974 59.4159 74.1227 59.3487 74.6192 59.1797C76.625 58.5078 77.6836 56.3066 77.0762 54.2773Z" fill="#A50121"/>
</svg>
